{"title":"Chennai Express 2013 Hindi Movie DTHRip DVD GOPI SAHI PDR","uid":8968383,"size":350597540,"categoryP":"video","categoryS":"movies","magnet":"?xt=urn:btih:cdd4c1ada0a8b924ba0afdc4ccfbe4f928fc1ffd&amp;dn=Chennai+Express+2013+Hindi+Movie+DTHRip+DVD+GOPI+SAHI+PDR&amp;tr=udp%3A%2F%2Ftracker.openbittorrent.com%3A80&amp;tr=udp%3A%2F%2Fopen.demonii.com%3A1337&amp;tr=udp%3A%2F%2Ftracker.coppersurfer.tk%3A6969&amp;tr=udp%3A%2F%2Fexodus.desync.com%3A6969","seeders":0,"leechers":1,"uploader":"jatt13","files":12,"time":1380243196,"description":"[img]http://imageshack.us/a/img802/2678/k9wp.png[/img]\n\n[img]http://imageshack.us/a/img62/4641/znbc.jpg[/img]\n\nIMDB [url]http://www.imdb.com/title/tt2112124/[/url]\n\nDirector:Rohit Shetty\nWriters:Robin Bhatt (additional screenplay), Farhad \nStars:Deepika Padukone, Shah Rukh Khan, Satyaraj\n\nVideo\nID                             : 1\nFormat                         : AVC\nFormat/Info                    : Advanced Video Codec\nFormat profile                 : &lt;a class=&quot;__cf_email__&quot; href=&quot;/cdn-cgi/l/email-protection&quot; data-cfemail=&quot;0e436f67604e423d203e&quot;&gt;[email&amp;#160;protected]&lt;/a&gt;&lt;script cf-hash='f9e31' type=&quot;text/javascript&quot;&gt;\n/* &lt;![CDATA[ */!function(){try{var t=&quot;currentScript&quot;in document?document.currentScript:function(){for(var t=document.getElementsByTagName(&quot;script&quot;),e=t.length;e--;)if(t[e].getAttribute(&quot;cf-hash&quot;))return t[e]}();if(t&amp;&amp;t.previousSibling){var e,r,n,i,c=t.previousSibling,a=c.getAttribute(&quot;data-cfemail&quot;);if(a){for(e=&quot;&quot;,r=parseInt(a.substr(0,2),16),n=2;a.length-n;n+=2)i=parseInt(a.substr(n,2),16)^r,e+=String.fromCharCode(i);e=document.createTextNode(e),c.parentNode.replaceChild(e,c)}}}catch(u){}}();/* ]]&gt; */&lt;/script&gt;\nFormat settings, CABAC         : Yes\nFormat settings, ReFrames      : 1 frame\nCodec ID                       : avc1\nCodec ID/Info                  : Advanced Video Coding\nDuration                       : 2h 13mn\nBit rate                       : 287 Kbps\nWidth                          : 640 pixels\nHeight                         : 360 pixels\nDisplay aspect ratio           : 16:9\nFrame rate mode                : Constant\nFrame rate                     : 23.976 fps\nColor space                    : YUV\nChroma subsampling             : 4:2:0\nBit depth                      : 8 bits\nScan type                      : Progressive\nBits/(Pixel*Frame)             : 0.052\nStream size                    : 274 MiB (83%)\nLanguage                       : English\nEncoded date                   : UTC 2013-09-27 00:03:51\nTagged date                    : UTC 2013-09-27 00:03:51\nColor primaries                : BT.709\nTransfer characteristics       : BT.709\nMatrix coefficients            : BT.709\n\nAudio\nID                             : 2\nFormat                         : AAC\nFormat/Info                    : Advanced Audio Codec\nFormat profile                 : LC\nCodec ID                       : 40\nDuration                       : 2h 13mn\nBit rate mode                  : Constant\nBit rate                       : 56.6 Kbps\nNominal bit rate               : 16.0 Kbps\nChannel count                  : 2 channels\nChannel positions              : Front: L R\nSampling rate                  : 48.0 KHz\nCompression mode               : Lossy\nStream size                    : 54.0 MiB (16%)\nLanguage                       : English\nEncoded date                   : UTC 2013-09-27 00:03:51\nTagged date                    : UTC 2013-09-27 00:03:51\n\n\n\n[img]http://imageshack.us/a/img706/8196/ll08.jpg[/img]\n\n[img]http://imageshack.us/a/img12/1824/5qeb.png[/img]\n\n[img]http://imageshack.us/a/img853/7110/tgtm.png[/img]\n\n[img]http://imageshack.us/a/img203/9831/w45q.png[/img]\n\n[img]http://imageshack.us/a/img20/8603/k3o6.png[/img]\n\n[img]http://imageshack.us/a/img51/6079/9ojs.png[/img]\n\n[img]http://imageshack.us/a/img51/3082/qamh.png[/img]\n\n[img]http://imageshack.us/a/img826/8906/qb6z.png[/img]","torrent":{"xt":"urn:btih:cdd4c1ada0a8b924ba0afdc4ccfbe4f928fc1ffd","amp;dn":"Chennai+Express+2013+Hindi+Movie+DTHRip+DVD+GOPI+SAHI+PDR","amp;tr":["udp%3A%2F%2Ftracker.openbittorrent.com%3A80","udp%3A%2F%2Fopen.demonii.com%3A1337","udp%3A%2F%2Ftracker.coppersurfer.tk%3A6969","udp%3A%2F%2Fexodus.desync.com%3A6969"],"infoHash":"cdd4c1ada0a8b924ba0afdc4ccfbe4f928fc1ffd","infoHashBuffer":{"type":"Buffer","data":[205,212,193,173,160,168,185,36,186,10,253,196,204,251,228,249,40,252,31,253]},"announce":[],"urlList":[]}}